- 
http://www.Speed.Cd
 
http://www.Speed.Cd       the fast  and The Hottest Private Tracker on the net

Please Seed back to make the speed Faster!!
 ............ NFO .............
-Halo.4.Forward.Unto.Dawn.Part.4.WEB-DL.1080p-TD


General
Complete name                    : D:Seedbox 2Halo.4.Forward.Unto.Dawn.Part.5.WEB-DL.1080p-TDHalo.4.Forward.Unto.Dawn.Part.4.WEB-DL.1080p-TD.mp4
Format                           : MPEG-4
Format profile                   : Base Media / Version 2
Codec ID                         : mp42
File size                        : 271 MiB
Duration                         : 17mn 10s
Overall bit rate                 : 2 204 Kbps
Encoded date                     : UTC 2012-10-31 19:59:03
Tagged date                      : UTC 2012-10-31 19:59:03
gsst                             : 0
gstd                             : 1030570
gssd                             : B96650D44HH1352026045093986
gshh                             :

Video
ID                               : 1
Format                           : AVC
Format/Info                      : Advanced Video Codec
Format profile                   : High@L4.0
Format settings, CABAC           : Yes
Format settings, ReFrames        : 1 frame
Codec ID                         : avc1
Codec ID/Info                    : Advanced Video Coding
Duration                         : 17mn 10s
Bit rate mode                    : Variable
Bit rate                         : 2 010 Kbps
Maximum bit rate                 : 8 775 Kbps
Width                            : 1 920 pixels
Height                           : 1 080 pixels
Display aspect ratio             : 16/9
Frame rate mode                  : Variable
Frame rate                       : 23.976 fps
Resolution                       : 24 bits
Colorimetry                      : 4:2:0
Scan type                        : Progressive
Bits/(Pixel*Frame)               : 0.040
Stream size                      : 247 MiB (91%)
Encoded date                     : UTC 1970-01-01 00:00:00
Tagged date                      : UTC 2012-10-31 19:59:04

Audio
ID                               : 2
Format                           : AAC
Format/Info                      : Advanced Audio Codec
Format version                   : Version 4
Format profile                   : LC
Format settings, SBR             : No
Codec ID                         : 40
Duration                         : 17mn 10s
Bit rate mode                    : Variable
Bit rate                         : 192 Kbps
Maximum bit rate                 : 202 Kbps
Channel(s)                       : 2 channels
Channel positions                : L R
Sampling rate                    : 44.1 KHz
Resolution                       : 16 bits
Stream size                      : 23.6 MiB (9%)
Title                            : IsoMedia File Produced by Google, 5-11-2011
Encoded date                     : UTC 2012-10-31 19:59:04
Tagged date                      : UTC 2012-10-31 19:59:04